<svg width="180" height="180" viewBox="0 0 180 180" fill="none" xmlns="http://www.w3.org/2000/svg">
<rect width="180" height="180" fill="#3B3B3B"/>
<circle cx="89.7" cy="71.1" r="17.7" fill="#B8B8B8"/>
<path d="M125.4 119.4C125.4 112.876 121.67 106.619 115.032 102.005C108.393 97.3918 99.3888 94.8 90.0001 94.8C80.6114 94.8 71.6073 97.3918 64.9685 102.005C58.3297 106.619 54.6001 112.876 54.6001 119.4L90.0001 119.4H125.4Z" fill="#B8B8B8"/>
<path d="M144 90C144 97.0914 142.603 104.113 139.889 110.665C137.176 117.216 133.198 123.169 128.184 128.184C123.169 133.198 117.216 137.176 110.665 139.889C104.113 142.603 97.0914 144 90 144C82.9086 144 75.8867 142.603 69.3351 139.889C62.7835 137.176 56.8306 133.198 51.8162 128.184C46.8019 123.169 42.8243 117.216 40.1105 110.665C37.3968 104.113 36 97.0914 36 90L50.5079 90C50.5079 95.1862 51.5294 100.322 53.5141 105.113C55.4987 109.904 58.4077 114.258 62.0749 117.925C65.742 121.592 70.0956 124.501 74.887 126.486C79.6784 128.471 84.8138 129.492 90 129.492C95.1862 129.492 100.322 128.471 105.113 126.486C109.904 124.501 114.258 121.592 117.925 117.925C121.592 114.258 124.501 109.904 126.486 105.113C128.471 100.322 129.492 95.1862 129.492 90H144Z" fill="#3C3C3C"/>
<circle cx="131.755" cy="80" r="14.4222" fill="#B8B8B8"/>
<path d="M160.844 119.356C160.844 114.039 157.805 108.941 152.396 105.182C146.987 101.423 139.65 99.3111 132 99.3111C124.35 99.3111 117.013 101.423 111.604 105.182C106.194 108.941 103.156 114.039 103.156 119.356L132 119.356H160.844Z" fill="#B8B8B8"/>
<path d="M176 95.4C176 103.289 173.879 111.033 169.859 117.82C165.84 124.608 160.069 130.191 153.151 133.983C146.234 137.775 138.424 139.638 130.539 139.376C122.655 139.114 114.986 136.737 108.335 132.494L114.693 122.528C119.557 125.631 125.166 127.369 130.932 127.561C136.698 127.753 142.41 126.39 147.469 123.617C152.528 120.844 156.748 116.761 159.688 111.797C162.628 106.833 164.179 101.169 164.179 95.4H176Z" fill="#3C3C3C"/>
<circle cx="43.7555" cy="80" r="14.4222" fill="#B8B8B8"/>
<path d="M72.8444 119.356C72.8444 114.039 69.8055 108.941 64.3961 105.182C58.9867 101.423 51.65 99.3111 44 99.3111C36.3499 99.3111 29.0132 101.423 23.6039 105.182C18.1945 108.941 15.1555 114.039 15.1555 119.356L44 119.356H72.8444Z" fill="#B8B8B8"/>
<path d="M69.9968 130.899C65.335 134.313 60.0464 136.775 54.4331 138.145C48.8197 139.515 42.9914 139.766 37.281 138.884C31.5706 138.002 26.0899 136.003 21.1519 133.003C16.2138 130.002 11.9151 126.059 8.50114 121.397C5.0872 116.735 2.62489 111.446 1.25481 105.833C-0.115281 100.22 -0.366315 94.3914 0.516038 88.681C1.39839 82.9706 3.39685 77.4899 6.39731 72.5519C9.39778 67.6138 13.3415 63.3151 18.0033 59.9011L24.9877 69.4384C21.5783 71.9352 18.6942 75.079 16.4998 78.6903C14.3055 82.3017 12.8439 86.3099 12.1987 90.4862C11.5534 94.6624 11.7369 98.9248 12.7389 103.03C13.7409 107.135 15.5417 111.003 18.0384 114.412C20.5352 117.822 23.679 120.706 27.2904 122.9C30.9017 125.095 34.91 126.556 39.0862 127.201C43.2624 127.847 47.5248 127.663 51.6301 126.661C55.7353 125.659 59.603 123.858 63.0123 121.362L69.9968 130.899Z" fill="#3C3C3C"/>
</svg>
