<svg width="180" height="180" viewBox="0 0 180 180" fill="none" xmlns="http://www.w3.org/2000/svg">
<rect width="180" height="180" fill="#3B3B3B"/>
<circle cx="89.5" cy="58.5" r="29.5" fill="#B8B8B8"/>
<path d="M149 139C149 128.126 142.784 117.698 131.719 110.009C120.655 102.32 105.648 98 90 98C74.3522 98 59.3454 102.32 48.2807 110.009C37.2161 117.698 31 128.126 31 139L90 139H149Z" fill="#B8B8B8"/>
<path d="M180 90C180 101.819 177.672 113.522 173.149 124.442C168.626 135.361 161.997 145.282 153.64 153.64C145.282 161.997 135.361 168.626 124.442 173.149C113.522 177.672 101.819 180 90 180C78.181 180 66.4778 177.672 55.5585 173.149C44.6392 168.626 34.7177 161.997 26.3604 153.64C18.0031 145.282 11.3738 135.361 6.85084 124.442C2.32792 113.522 -1.03325e-06 101.819 0 90H24.1798C24.1798 98.6436 25.8823 107.203 29.1901 115.188C32.4979 123.174 37.3461 130.43 43.4581 136.542C49.5701 142.654 56.826 147.502 64.8117 150.81C72.7974 154.118 81.3564 155.82 90 155.82C98.6436 155.82 107.203 154.118 115.188 150.81C123.174 147.502 130.43 142.654 136.542 136.542C142.654 130.43 147.502 123.174 150.81 115.188C154.118 107.203 155.82 98.6436 155.82 90H180Z" fill="#3C3C3C"/>
</svg>
